<svg xmlns="http://www.w3.org/2000/svg" width="22" height="25" viewBox="0 0 22 25">
    <g fill="none" fill-rule="evenodd">
        <g fill="#D93738">
            <g>
                <g>
                    <g>
                        <g>
                            <g>
                                <path d="M11 0L9.077 3.746c-.218.407-.608.37-.999.142l-1.391-.753 1.037 5.754c.218 1.051-.482 1.051-.827.597L4.471 6.645l-.395 1.443c-.045.189-.245.388-.545.34l-3.07-.674.807 3.064c.173.682.307.964-.174 1.144L0 12.5l5.284 4.487c.209.17.315.475.24.75l-.462 1.588 5.27-.635c.161-.002.43.141.428.336l-.241 5.813h.885l-.14-5.8c0-.195.242-.351.404-.349l5.27.635-.462-1.587c-.075-.276.03-.582.24-.751L22 12.5l-1.094-.538c-.482-.18-.347-.462-.174-1.144l.806-3.064-3.07.675c-.3.047-.5-.152-.545-.341l-.394-1.443-2.427 2.84c-.345.455-1.045.455-.827-.596l1.037-5.754-1.391.753c-.39.228-.781.265-1-.142L11 0z" transform="translate(-538 -352) translate(440 223) translate(98 125) translate(0 4)"/>
                            </g>
                        </g>
                    </g>
                </g>
            </g>
        </g>
    </g>
</svg>
