<svg xmlns="http://www.w3.org/2000/svg" width="111" height="22" viewBox="0 0 111 22">
    <g fill="none" fill-rule="evenodd">
        <g>
            <g>
                <g>
                    <g>
                        <g transform="translate(-1159 -760) translate(0 734) translate(1080 24) translate(80 3)">
                            <circle cx="11.752" cy="6.717" r="6.6" fill="#D9E021" fill-rule="nonzero"/>
                            <circle cx="6.804" cy="10.894" r="6.6" fill="#9E005D" fill-rule="nonzero" opacity=".72"/>
                            <circle cx="12.943" cy="13.094" r="6.6" fill="#29ABE2" fill-rule="nonzero" opacity=".73"/>
                            <circle cx="11.772" cy="6.76" r="6.6" stroke="#FFF" stroke-linecap="round"/>
                            <path fill="#29ABE2" fill-rule="nonzero" d="M35.276 9.809c0 3.393-2.651 5.968-6.01 5.968-3.255-.057-5.865-2.713-5.865-5.969 0-3.256 2.61-5.912 5.866-5.969 3.358 0 6.01 2.575 6.01 5.97zm-10.848.025c0 2.601 2.056 4.905 4.755 4.905 2.799 0 4.979-2.13 4.979-4.905 0-2.822-2.156-4.953-4.98-4.953-2.724-.002-4.754 2.302-4.754 4.953zM41.469 13.524L45.53 4.087 46.67 4.087 41.443 16.149 36.193 4.087 37.334 4.087zM48.7 9.907c-.074 2.898 1.93 4.83 4.583 4.83 1.783 0 3.22-1.065 4.037-2.6l.94.546c-.963 1.94-2.962 3.146-5.127 3.096-3.393 0-5.547-2.748-5.547-5.994 0-3.194 2.204-5.944 5.547-5.944 3.46 0 5.524 2.774 5.498 6.068l-9.93-.002zm8.817-1.04c-.271-2.105-2.003-3.988-4.358-3.988-2.355 0-4.26 1.834-4.459 3.988h8.817zM63.438 5.573h.049c.446-1.04 1.262-1.734 2.477-1.734.419.001.833.095 1.212.273l-.593.987c-.239-.145-.513-.223-.792-.224-2.503 0-2.353 3.122-2.353 4.806v5.848h-1.115V4.087h1.115v1.486zM71.926 15.529L70.812 15.529 70.812 5.127 69.55 5.127 69.55 4.087 70.812 4.087 70.812 0 71.926 0 71.926 4.087 73.929 4.087 73.929 5.127 71.926 5.127zM86.392 4.087v6.86c0 1.164.024 2.33-.694 3.295-.792 1.04-2.13 1.535-3.418 1.535-1.288 0-2.625-.495-3.422-1.535-.718-.966-.692-2.131-.692-3.295v-6.86h1.114v6.465c0 2.204.248 4.189 2.996 4.189s2.998-1.982 2.998-4.189V4.087h1.118zM93.128 5.573h.05c.446-1.04 1.264-1.734 2.476-1.734.42.001.834.095 1.213.273l-.593.987c-.239-.145-.513-.223-.793-.224-2.502 0-2.353 3.122-2.353 4.806v5.848h-1.114V4.087h1.114v1.486zM99.889 9.907c-.073 2.898 1.932 4.83 4.584 4.83 1.783 0 3.22-1.065 4.035-2.6l.942.546c-.963 1.94-2.962 3.146-5.127 3.096-3.393 0-5.549-2.748-5.549-5.994 0-3.194 2.206-5.944 5.55-5.944 3.46 0 5.523 2.774 5.498 6.068l-9.933-.002zm8.818-1.04c-.271-2.105-2.003-3.988-4.36-3.988s-4.26 1.834-4.458 3.988h8.818z"/>
                            <path fill="#FFF" fill-rule="nonzero" d="M8.689 18.265c-.492-.434-.92-.933-1.275-1.485-.347-.563-.604-1.178-.761-1.82-.168-.647-.253-1.312-.255-1.98 0-.677.088-1.35.26-2.004l.694.217c-.213.587-.35 1.2-.406 1.821-.058.627-.036 1.259.066 1.88.09.629.28 1.24.56 1.81.3.568.676 1.093 1.117 1.56zM5.44 4.396c1.153-.232 2.348-.153 3.46.23 1.142.385 2.165 1.06 2.969 1.958l-.578.459C9.943 5.192 7.721 4.187 5.44 4.396zM18.27 8.159c-.15.628-.396 1.23-.728 1.785-.341.56-.757 1.069-1.237 1.515-.972.917-2.163 1.567-3.46 1.889l-.142-.714c1.229-.188 2.389-.69 3.367-1.457.497-.385.939-.836 1.311-1.343.38-.51.68-1.075.89-1.675z"/>
                            <path fill="#FFF" fill-rule="nonzero" d="M11.8 6.54c-2.353.425-4.294 2.085-5.078 4.343-.012.032-.022.064-.03.097.744.909 1.72 1.6 2.824 2.003 1.106.407 2.303.502 3.46.275 0-.027.022-.053.031-.08.803-2.27.344-4.796-1.207-6.638z"/>
                            <circle cx="12.978" cy="13.189" r="6.6" stroke="#FFF" stroke-linecap="round"/>
                            <circle cx="6.693" cy="10.885" r="6.6" stroke="#FFF" stroke-linecap="round"/>
                        </g>
                    </g>
                </g>
            </g>
        </g>
    </g>
</svg>
